<svg width="29" height="28" viewBox="0 0 29 28" fill="none" xmlns="http://www.w3.org/2000/svg">
<mask id="mask0_528_696" style="mask-type:alpha" maskUnits="userSpaceOnUse" x="0" y="0" width="29" height="28">
<rect x="0.5" width="28" height="28" fill="#D9D9D9"/>
</mask>
<g mask="url(#mask0_528_696)">
<path d="M6.33333 24.5C5.69167 24.5 5.14236 24.2715 4.68542 23.8146C4.22847 23.3576 4 22.8083 4 22.1667V5.83333C4 5.19167 4.22847 4.64236 4.68542 4.18542C5.14236 3.72847 5.69167 3.5 6.33333 3.5H22.6667C23.3083 3.5 23.8576 3.72847 24.3146 4.18542C24.7715 4.64236 25 5.19167 25 5.83333V22.1667C25 22.8083 24.7715 23.3576 24.3146 23.8146C23.8576 24.2715 23.3083 24.5 22.6667 24.5H6.33333ZM8.66667 19.8333H20.3333C20.5667 19.8333 20.7417 19.7264 20.8583 19.5125C20.975 19.2986 20.9556 19.0944 20.8 18.9L17.5917 14.6125C17.475 14.4569 17.3194 14.3792 17.125 14.3792C16.9306 14.3792 16.775 14.4569 16.6583 14.6125L13.625 18.6667L11.4667 15.7792C11.35 15.6236 11.1944 15.5458 11 15.5458C10.8056 15.5458 10.65 15.6236 10.5333 15.7792L8.2 18.9C8.04444 19.0944 8.025 19.2986 8.14167 19.5125C8.25833 19.7264 8.43333 19.8333 8.66667 19.8333ZM10.4167 11.6667C10.9028 11.6667 11.316 11.4965 11.6562 11.1562C11.9965 10.816 12.1667 10.4028 12.1667 9.91667C12.1667 9.43056 11.9965 9.01736 11.6562 8.67708C11.316 8.33681 10.9028 8.16667 10.4167 8.16667C9.93056 8.16667 9.51736 8.33681 9.17708 8.67708C8.83681 9.01736 8.66667 9.43056 8.66667 9.91667C8.66667 10.4028 8.83681 10.816 9.17708 11.1562C9.51736 11.4965 9.93056 11.6667 10.4167 11.6667Z" fill="#A7A7A7"/>
</g>
</svg>
