<svg width="25" height="24" viewBox="0 0 25 24" fill="none" xmlns="http://www.w3.org/2000/svg">
<path d="M4.5 13.8C4.5 12.1333 5.16267 10.321 6.488 8.363C7.81333 6.405 9.81733 4.284 12.5 2C14.4667 3.66667 16.0627 5.25 17.288 6.75C18.5133 8.25 19.3923 9.675 19.925 11.025H17.75C17.2833 10.075 16.6167 9.071 15.75 8.013C14.8833 6.955 13.8 5.834 12.5 4.65C10.5167 6.46667 9.021 8.14167 8.013 9.675C7.005 11.2083 6.50067 12.5833 6.5 13.8C6.5 15.5833 7.06667 17.0627 8.2 18.238C9.33333 19.4133 10.7667 20.0007 12.5 20V22C10.2167 22 8.31267 21.2167 6.788 19.65C5.26333 18.0833 4.50067 16.1333 4.5 13.8ZM15.3 22.475L14.875 21.525C14.7417 21.2417 14.6457 20.946 14.587 20.638C14.5283 20.33 14.4993 20.0173 14.5 19.7C14.5 19.3333 14.5417 18.971 14.625 18.613C14.7083 18.255 14.8333 17.909 15 17.575C15.1333 17.2917 15.25 17.0043 15.35 16.713C15.45 16.4217 15.5 16.1173 15.5 15.8C15.5 15.55 15.4707 15.3083 15.412 15.075C15.3533 14.8417 15.2743 14.6083 15.175 14.375L14.825 13.625L16.2 13.025L16.625 13.925C16.7583 14.2083 16.8543 14.5083 16.913 14.825C16.9717 15.1417 17.0007 15.4667 17 15.8C17 16.1667 16.9583 16.525 16.875 16.875C16.7917 17.225 16.6667 17.5667 16.5 17.9C16.3667 18.1833 16.25 18.475 16.15 18.775C16.05 19.075 16 19.3833 16 19.7C16 19.9333 16.025 20.1627 16.075 20.388C16.125 20.6133 16.2 20.834 16.3 21.05L16.675 21.875L15.3 22.475ZM18.3 22.475L17.875 21.525C17.7417 21.2417 17.6457 20.946 17.587 20.638C17.5283 20.33 17.4993 20.0173 17.5 19.7C17.5 19.3333 17.5417 18.971 17.625 18.613C17.7083 18.255 17.8333 17.909 18 17.575C18.1333 17.2917 18.25 17.0043 18.35 16.713C18.45 16.4217 18.5 16.1173 18.5 15.8C18.5 15.55 18.4707 15.3083 18.412 15.075C18.3533 14.8417 18.2743 14.6083 18.175 14.375L17.825 13.625L19.2 13.025L19.625 13.925C19.7583 14.225 19.8543 14.5293 19.913 14.838C19.9717 15.1467 20.0007 15.4673 20 15.8C20 16.1667 19.9583 16.525 19.875 16.875C19.7917 17.225 19.6667 17.5667 19.5 17.9C19.3667 18.1833 19.25 18.475 19.15 18.775C19.05 19.075 19 19.3833 19 19.7C19 19.9333 19.025 20.1627 19.075 20.388C19.125 20.6133 19.2 20.834 19.3 21.05L19.675 21.875L18.3 22.475ZM21.3 22.475L20.875 21.525C20.7417 21.2417 20.6457 20.946 20.587 20.638C20.5283 20.33 20.4993 20.0173 20.5 19.7C20.5 19.3333 20.5417 18.971 20.625 18.613C20.7083 18.255 20.8333 17.909 21 17.575C21.1333 17.2917 21.25 17.0043 21.35 16.713C21.45 16.4217 21.5 16.1173 21.5 15.8C21.5 15.55 21.4707 15.3083 21.412 15.075C21.3533 14.8417 21.2743 14.6083 21.175 14.375L20.825 13.625L22.2 13.025L22.625 13.925C22.7583 14.2083 22.8543 14.5083 22.913 14.825C22.9717 15.1417 23.0007 15.4667 23 15.8C23 16.1667 22.9583 16.5293 22.875 16.888C22.7917 17.2467 22.6667 17.5923 22.5 17.925C22.3667 18.2083 22.25 18.496 22.15 18.788C22.05 19.08 22 19.384 22 19.7C22 19.9333 22.025 20.1627 22.075 20.388C22.125 20.6133 22.2 20.834 22.3 21.05L22.675 21.875L21.3 22.475Z" fill="#6BA0EE"/>
</svg>
