<svg width="22" height="20" viewBox="0 0 22 20" fill="none" xmlns="http://www.w3.org/2000/svg">
<path d="M1 17V5.549C1 4.105 1 3.383 1.243 2.816C1.54637 2.10946 2.10946 1.54637 2.816 1.243C3.383 1 4.098 1 5.55 1H6.044C6.34269 1.00003 6.63757 1.06697 6.90701 1.19589C7.17644 1.32481 7.41357 1.51244 7.601 1.745L9.418 4M9.418 4H15C16.4 4 17.1 4 17.635 4.272C18.1053 4.51189 18.4875 4.89451 18.727 5.365C19 5.9 19 6.6 19 8V9M9.418 4H6" stroke="black" stroke-width="1.5" stroke-linecap="round" stroke-linejoin="round"/>
<path d="M2.15798 13.514L2.45598 12.772C3.18998 10.945 3.55698 10.032 4.32198 9.516C5.08698 9 6.07598 9 8.05198 9H16.112C18.8 9 20.145 9 20.742 9.879C21.34 10.758 20.84 12 19.842 14.486L19.544 15.228C18.81 17.055 18.443 17.968 17.678 18.484C16.913 19 15.924 19 13.948 19H5.88798C3.19998 19 1.85498 19 1.25798 18.121C0.659978 17.243 1.15998 16 2.15798 13.514Z" stroke="black" stroke-width="1.5" stroke-linejoin="round"/>
</svg>
