<svg width="29" height="28" viewBox="0 0 29 28" fill="none" xmlns="http://www.w3.org/2000/svg">
<mask id="mask0_528_699" style="mask-type:alpha" maskUnits="userSpaceOnUse" x="0" y="0" width="29" height="28">
<rect x="0.5" width="28" height="28" fill="#D9D9D9"/>
</mask>
<g mask="url(#mask0_528_699)">
<path d="M14.5002 20.4166C15.5307 20.4166 16.5078 20.193 17.4314 19.7458C18.355 19.2985 19.0988 18.6471 19.6627 17.7916C19.8766 17.461 19.9057 17.1353 19.7502 16.8145C19.5946 16.4937 19.3418 16.3333 18.9918 16.3333C18.8363 16.3333 18.6953 16.3673 18.5689 16.4353C18.4425 16.5034 18.3404 16.6055 18.2627 16.7416C17.8154 17.3444 17.2613 17.8159 16.6002 18.1562C15.9391 18.4964 15.2391 18.6666 14.5002 18.6666C13.7613 18.6666 13.0613 18.4964 12.4002 18.1562C11.7391 17.8159 11.1849 17.3444 10.7377 16.7416C10.6404 16.6055 10.5286 16.5034 10.4022 16.4353C10.2759 16.3673 10.1349 16.3333 9.97933 16.3333C9.62933 16.3333 9.37655 16.4888 9.221 16.7999C9.06544 17.111 9.09461 17.4221 9.3085 17.7333C9.87239 18.6083 10.6161 19.2742 11.5397 19.7312C12.4634 20.1881 13.4502 20.4166 14.5002 20.4166ZM18.5835 12.8333C19.0696 12.8333 19.4828 12.6631 19.8231 12.3228C20.1634 11.9826 20.3335 11.5694 20.3335 11.0833C20.3335 10.5971 20.1634 10.1839 19.8231 9.84367C19.4828 9.50339 19.0696 9.33325 18.5835 9.33325C18.0974 9.33325 17.6842 9.50339 17.3439 9.84367C17.0036 10.1839 16.8335 10.5971 16.8335 11.0833C16.8335 11.5694 17.0036 11.9826 17.3439 12.3228C17.6842 12.6631 18.0974 12.8333 18.5835 12.8333ZM10.4168 12.8333C10.9029 12.8333 11.3161 12.6631 11.6564 12.3228C11.9967 11.9826 12.1668 11.5694 12.1668 11.0833C12.1668 10.5971 11.9967 10.1839 11.6564 9.84367C11.3161 9.50339 10.9029 9.33325 10.4168 9.33325C9.93072 9.33325 9.51752 9.50339 9.17725 9.84367C8.83697 10.1839 8.66683 10.5971 8.66683 11.0833C8.66683 11.5694 8.83697 11.9826 9.17725 12.3228C9.51752 12.6631 9.93072 12.8333 10.4168 12.8333ZM14.5002 25.6666C12.8863 25.6666 11.3696 25.3603 9.95016 24.7478C8.53072 24.1353 7.296 23.3041 6.246 22.2541C5.196 21.2041 4.36475 19.9694 3.75225 18.5499C3.13975 17.1305 2.8335 15.6138 2.8335 13.9999C2.8335 12.386 3.13975 10.8694 3.75225 9.44992C4.36475 8.03047 5.196 6.79575 6.246 5.74575C7.296 4.69575 8.53072 3.8645 9.95016 3.252C11.3696 2.6395 12.8863 2.33325 14.5002 2.33325C16.1141 2.33325 17.6307 2.6395 19.0502 3.252C20.4696 3.8645 21.7043 4.69575 22.7543 5.74575C23.8043 6.79575 24.6356 8.03047 25.2481 9.44992C25.8606 10.8694 26.1668 12.386 26.1668 13.9999C26.1668 15.6138 25.8606 17.1305 25.2481 18.5499C24.6356 19.9694 23.8043 21.2041 22.7543 22.2541C21.7043 23.3041 20.4696 24.1353 19.0502 24.7478C17.6307 25.3603 16.1141 25.6666 14.5002 25.6666Z" fill="#A7A7A7"/>
</g>
</svg>
